<svg xmlns="http://www.w3.org/2000/svg" width="1200" height="520" viewBox="0 0 1200 520" role="img" aria-labelledby="title desc">
  <title id="title">Memory CLI overview</title>
  <desc id="desc">An agent builds, tests, retrieves, and optimizes its own memory system through a stable CLI contract.</desc>
  <defs>
    <linearGradient id="bg" x1="0" y1="0" x2="1" y2="1">
      <stop offset="0" stop-color="#f7fbff"/>
      <stop offset="0.55" stop-color="#f8fff4"/>
      <stop offset="1" stop-color="#fff8ef"/>
    </linearGradient>
    <filter id="shadow" x="-20%" y="-20%" width="140%" height="140%">
      <feDropShadow dx="0" dy="10" stdDeviation="12" flood-color="#1f2937" flood-opacity="0.14"/>
    </filter>
    <style>
      .title{font:700 44px Arial,sans-serif;fill:#162033}
      .subtitle{font:400 21px Arial,sans-serif;fill:#41516a}
      .label{font:700 23px Arial,sans-serif;fill:#172033}
      .body{font:400 17px Arial,sans-serif;fill:#4a5870}
      .mono{font:700 17px Consolas,monospace;fill:#243044}
      .panel{fill:#ffffff;stroke:#d9e2ec;stroke-width:2;filter:url(#shadow)}
      .chip{fill:#eef6ff;stroke:#9bc7ee;stroke-width:1.5}
      .accent1{fill:#2f80ed}
      .accent2{fill:#27ae60}
      .accent3{fill:#f2994a}
      .line{stroke:#6b7c93;stroke-width:3;fill:none;stroke-linecap:round;stroke-linejoin:round}
    </style>
  </defs>
  <rect width="1200" height="520" rx="28" fill="url(#bg)"/>
  <text x="70" y="84" class="title">Agent-owned Memory System</text>
  <text x="72" y="122" class="subtitle">Agents build, use, test, and optimize durable memory through a stable local CLI.</text>

  <rect x="70" y="178" width="290" height="210" rx="18" class="panel"/>
  <circle cx="125" cy="235" r="28" class="accent1"/>
  <path d="M112 236h26M125 223v26" stroke="#fff" stroke-width="5" stroke-linecap="round"/>
  <text x="174" y="232" class="label">Memory records</text>
  <text x="174" y="264" class="body">Content, priority, source,</text>
  <text x="174" y="292" class="body">and keyword query cases</text>
  <rect x="105" y="322" width="220" height="38" rx="10" class="chip"/>
  <text x="125" y="347" class="mono">memories/*.json</text>

  <rect x="455" y="178" width="290" height="210" rx="18" class="panel"/>
  <circle cx="510" cy="235" r="28" class="accent2"/>
  <path d="M498 236l9 9 17-21" stroke="#fff" stroke-width="5" stroke-linecap="round" stroke-linejoin="round"/>
  <text x="559" y="232" class="label">Retrieval tests</text>
  <text x="559" y="264" class="body">Memories must be found</text>
  <text x="559" y="292" class="body">by keyword phrases</text>
  <rect x="490" y="322" width="220" height="38" rx="10" class="chip"/>
  <text x="514" y="347" class="mono">memory-cli test</text>

  <rect x="840" y="178" width="290" height="210" rx="18" class="panel"/>
  <circle cx="895" cy="235" r="28" class="accent3"/>
  <path d="M883 238c14-22 32-22 46 0M890 252h32" stroke="#fff" stroke-width="5" stroke-linecap="round"/>
  <text x="944" y="232" class="label">Evolving engine</text>
  <text x="944" y="264" class="body">Start with JSON scans,</text>
  <text x="944" y="292" class="body">then upgrade retrieval</text>
  <rect x="875" y="322" width="220" height="38" rx="10" class="chip"/>
  <text x="899" y="347" class="mono">memory-cli bench</text>

  <path d="M370 283h74" class="line"/>
  <path d="M428 268l18 15-18 15" class="line"/>
  <path d="M755 283h74" class="line"/>
  <path d="M813 268l18 15-18 15" class="line"/>

  <rect x="315" y="428" width="570" height="48" rx="24" fill="#172033"/>
  <text x="384" y="459" style="font:700 19px Arial,sans-serif;fill:#fff">Stable CLI contract, replaceable retrieval internals</text>
</svg>
